<svg width="28" height="23" viewBox="0 0 28 23" fill="none" xmlns="http://www.w3.org/2000/svg">
<path d="M20.2687 15.1104L23.6036 2.05251H27.2519V0H22.0094L21.2232 3.07816L0 3.06298L2.25634 15.1103H20.2687V15.1104ZM20.6992 5.13031L18.6745 13.0578H3.96011L2.47291 5.11727L20.6992 5.13031Z" fill="white"/>
<path d="M17.4589 22.5902C19.2688 22.5902 20.7412 21.1178 20.7412 19.3079C20.7412 17.498 19.2688 16.0256 17.4589 16.0256H5.09251C3.28265 16.0256 1.81018 17.498 1.81018 19.3079C1.81018 21.1178 3.28262 22.5902 5.09251 22.5902C6.9024 22.5902 8.37481 21.1178 8.37481 19.3079C8.37481 18.8733 8.28966 18.4582 8.13554 18.0781H14.4159C14.2617 18.4582 14.1766 18.8733 14.1766 19.3079C14.1766 21.1178 15.6491 22.5902 17.4589 22.5902ZM6.3223 19.3079C6.3223 19.986 5.77062 20.5377 5.09251 20.5377C4.4144 20.5377 3.86269 19.986 3.86269 19.3079C3.86269 18.6298 4.41437 18.0781 5.09251 18.0781C5.77062 18.0781 6.3223 18.6298 6.3223 19.3079ZM18.6887 19.3079C18.6887 19.986 18.1371 20.5377 17.459 20.5377C16.7808 20.5377 16.2292 19.986 16.2292 19.3079C16.2292 18.6298 16.7808 18.0781 17.459 18.0781C18.1371 18.0781 18.6887 18.6298 18.6887 19.3079Z" fill="white"/>
</svg>
