<svg width="58" height="59" viewBox="0 0 58 59" fill="none" xmlns="http://www.w3.org/2000/svg">
<path d="M38.6667 19.7184C38.6667 25.0571 34.3387 29.3851 29 29.3851C23.6613 29.3851 19.3334 25.0571 19.3334 19.7184C19.3334 14.3797 23.6613 10.0518 29 10.0518C34.3387 10.0518 38.6667 14.3797 38.6667 19.7184Z" stroke="white" stroke-width="2" stroke-linecap="round" stroke-linejoin="round"/>
<path d="M35.4825 34.2183H22.5177C21.3516 34.2183 20.7685 34.2183 20.247 34.3297C18.442 34.7151 16.8811 36.0697 16.0067 38.01C15.754 38.5704 15.5697 39.2365 15.2009 40.5688C14.7578 42.1693 14.5363 42.9697 14.5063 43.6152C14.4006 45.8927 15.6314 47.949 17.459 48.5484C17.977 48.7183 18.6776 48.7183 20.0787 48.7183H37.9214C39.3226 48.7183 40.0231 48.7183 40.541 48.5484C42.3685 47.949 43.5993 45.8927 43.4937 43.6152C43.4638 42.9697 43.2421 42.1693 42.7992 40.5688C42.4304 39.2365 42.246 38.5704 41.9932 38.01C41.1189 36.0697 39.5579 34.7151 37.7529 34.3297C37.2314 34.2183 36.6485 34.2183 35.4825 34.2183Z" stroke="white" stroke-width="2" stroke-linecap="round" stroke-linejoin="round"/>
</svg>
