<svg width="53" height="61" viewBox="0 0 53 61" fill="none" xmlns="http://www.w3.org/2000/svg">
<path d="M2.64697 38.2761C2.25403 38.0866 1.82971 38.0646 1.40237 38.0646H0V43.3514H0.819843C0.819843 43.0521 0.800067 42.7412 0.928181 42.4617C1.13497 42.0117 1.61647 41.7955 2.03692 41.5913C2.4879 41.373 2.98789 41.1598 3.28711 40.7365C3.55237 40.3614 3.62459 39.8644 3.54721 39.4161C3.45822 38.9036 3.10827 38.4987 2.64697 38.2761ZM2.60656 40.2972C2.41181 40.5892 2.0825 40.7533 1.77726 40.9057C1.44408 41.0724 1.10101 41.2378 0.819843 41.4875V38.8291H1.59712C2.0322 38.8291 2.51155 38.963 2.68351 39.4109C2.78841 39.6839 2.77036 40.0504 2.60656 40.2972Z" fill="white"/>
<path d="M8.67549 38.2111C7.96528 37.8088 6.94724 37.9277 6.39824 38.5474C6.13127 38.8484 5.99585 39.236 5.97177 39.6344C5.96575 39.7352 5.9679 43.3514 5.9679 43.3514H6.77958V41.5999C7.25764 41.5392 7.79288 41.5857 8.19399 41.8777C8.5534 42.1391 8.71117 42.5508 8.71203 42.9858C8.71203 43.1077 8.71203 43.3514 8.71203 43.3514H9.52414V39.8062C9.52328 39.1559 9.25716 38.5405 8.67549 38.2111ZM8.66732 41.367C8.18496 40.8769 7.44508 40.7055 6.77958 40.8118V39.9479C6.77958 39.789 6.77571 39.6301 6.81655 39.4746C6.89436 39.1766 7.1205 38.9307 7.41284 38.8325C7.71765 38.7296 8.0706 38.7761 8.32941 38.9695C8.58908 39.1637 8.70902 39.4621 8.71203 39.7808C8.71418 40.0289 8.71203 40.2774 8.71203 40.5254V41.4182C8.69699 41.4014 8.68323 41.3829 8.66732 41.367Z" fill="white"/>
<path d="M15.1059 41.3872C15.0122 41.3372 14.9121 41.2959 14.8072 41.2627C15.0677 41.1193 15.3256 40.9423 15.5079 40.7033C15.6769 40.4815 15.7732 40.2257 15.8037 39.9492C15.8669 39.3695 15.6777 38.817 15.2014 38.4634C14.5668 37.9914 13.7642 38.0646 13.0192 38.0646H12.244V43.3514H13.0639C13.0639 43.1947 13.0583 43.0366 13.0656 42.8799C13.0819 42.5306 13.2358 42.1934 13.5406 42.0065C13.8386 41.8243 14.2453 41.8028 14.563 41.9453C14.8833 42.0892 15.0909 42.3975 15.1429 42.7403C15.1734 42.9402 15.1588 43.1499 15.1588 43.3514H15.9868C15.9868 43.0612 16.0027 42.7657 15.9387 42.4806C15.8325 42.0108 15.5298 41.6142 15.1059 41.3872ZM13.8678 38.8291C14.3897 38.8291 14.9176 39.0844 14.9744 39.6564C15.0019 39.9316 14.9417 40.2042 14.759 40.4156C14.5591 40.6465 14.2612 40.786 13.9912 40.916C13.6636 41.0741 13.3347 41.2386 13.0639 41.4854V38.8291H13.8678Z" fill="white"/>
<path d="M18.5363 38.8048C18.8038 38.7333 19.0806 38.7002 19.3562 38.6829V38.0645H18.5363V38.8048Z" fill="white"/>
<path d="M18.5363 39.2683V43.3514H19.3562V39.1465C19.0806 39.1581 18.8033 39.1986 18.5363 39.2683Z" fill="white"/>
<path d="M24.8289 40.8138C24.5348 40.5825 24.1827 40.4495 23.8349 40.322C23.5125 40.2044 23.1376 40.0799 22.9046 39.8134C22.6892 39.5675 22.7373 39.1777 22.9592 38.9542C23.1887 38.7234 23.5572 38.6717 23.8594 38.7677C24.2008 38.8758 24.4067 39.1837 24.4067 39.5369H25.2184C25.2184 39.1493 25.0945 38.7768 24.8284 38.4912C24.5705 38.2148 24.2149 38.0502 23.8431 38.0016C23.4566 37.9508 23.0559 38.0011 22.7141 38.1962C22.3934 38.3788 22.123 38.6691 22.0082 39.0253C21.8986 39.3655 21.9227 39.7901 22.0972 40.1054C22.292 40.4563 22.6436 40.6674 23.0026 40.8211C23.393 40.9878 23.8431 41.0903 24.1922 41.3396C24.3327 41.44 24.4497 41.5687 24.4914 41.7406C24.5322 41.9085 24.5172 42.098 24.4394 42.2531C24.2498 42.6308 23.7777 42.7462 23.3912 42.6717C22.9579 42.5885 22.6449 42.2259 22.6449 41.7815H21.841C21.841 42.2117 21.9807 42.6174 22.2881 42.9236C22.5925 43.2277 23.0151 43.3917 23.4394 43.4258C23.8843 43.4615 24.3435 43.3711 24.7119 43.1101C25.0507 42.8693 25.2794 42.4964 25.3237 42.0808C25.3749 41.5959 25.2184 41.1204 24.8289 40.8138Z" fill="white"/>
<path d="M32.4692 40.9277C32.6506 40.702 32.8273 40.4643 32.9473 40.199C33.0655 39.9372 33.108 39.6473 33.0762 39.3618C33.0156 38.8183 32.6403 38.3674 32.1511 38.1435C31.6511 37.9148 31.0212 37.9255 30.532 38.1762C30.038 38.429 29.6838 38.9118 29.6541 39.4742C29.6236 40.0491 29.8906 40.5573 30.342 40.9031L30.8046 40.3097C30.6386 40.1508 30.5071 39.9583 30.4692 39.7274C30.4327 39.5052 30.4705 39.2808 30.6055 39.0978C30.8703 38.7391 31.4021 38.631 31.7955 38.8291C31.992 38.9277 32.1571 39.0991 32.2276 39.3097C32.3011 39.5289 32.2663 39.7808 32.173 39.9884C32.0784 40.1981 31.9279 40.3773 31.7856 40.5556C31.2375 41.2425 30.6894 41.929 30.1416 42.6154C29.946 42.8609 29.75 43.1064 29.5544 43.3514H33.265V42.5952H31.1365L32.4692 40.9277Z" fill="white"/>
<path d="M40.1826 38.7723C39.3649 37.9717 38.0842 37.7563 37.0464 38.2361C35.9996 38.7201 35.3693 39.8334 35.4781 40.9807C35.5847 42.1056 36.4239 43.0698 37.5146 43.3467C38.6212 43.6275 39.8352 43.2141 40.4977 42.2735C41.1637 41.3278 41.1443 40.0001 40.4492 39.0754C40.3679 38.9678 40.2789 38.8666 40.1826 38.7723ZM39.9999 41.4686C39.6796 42.2218 38.9238 42.7059 38.1048 42.6564C37.3112 42.609 36.6221 42.0392 36.3921 41.2817C36.1561 40.5039 36.4364 39.6353 37.0804 39.1426C37.7274 38.6482 38.6435 38.6306 39.312 39.0944C40.0592 39.6129 40.3563 40.6288 39.9999 41.4686Z" fill="white"/>
<path d="M46.2073 40.9277C46.3887 40.702 46.5654 40.4643 46.6853 40.199C46.8036 39.9372 46.8461 39.6473 46.8143 39.3618C46.7533 38.8183 46.3784 38.3674 45.8892 38.1435C45.3892 37.9148 44.7593 37.9255 44.2701 38.1762C43.7761 38.429 43.4219 38.9118 43.3922 39.4742C43.3617 40.0491 43.6282 40.5573 44.0801 40.9031L44.5427 40.3097C44.3767 40.1508 44.2452 39.9583 44.2073 39.7274C44.1708 39.5052 44.2082 39.2808 44.3436 39.0978C44.6084 38.7391 45.1402 38.631 45.5336 38.8291C45.7301 38.9277 45.8952 39.0991 45.9657 39.3097C46.0392 39.5289 46.0044 39.7808 45.9111 39.9884C45.8165 40.1981 45.666 40.3773 45.5233 40.5556C44.9756 41.2425 44.4274 41.929 43.8797 42.6154C43.6837 42.8609 43.4881 43.1064 43.2925 43.3514H47.0031V42.5952H44.8746L46.2073 40.9277Z" fill="white"/>
<path d="M51.9881 39.4798V41.2718C51.5977 40.9931 51.1098 40.9083 50.7014 40.6633C50.3484 40.4518 50.2362 40.0819 50.2345 39.6904C50.2323 39.3071 50.2345 38.0646 50.2345 38.0646H49.4142C49.4142 38.0646 49.4133 39.165 49.4142 39.7154C49.4151 40.2787 49.5535 40.8295 50.0139 41.1921C50.2977 41.4156 50.639 41.5534 50.9774 41.6719C51.2792 41.7778 51.5999 41.9104 51.8071 42.1658C51.97 42.3669 51.9881 42.6077 51.9881 42.8557V43.3514H52.7757V39.4798H51.9881Z" fill="white"/>
<path d="M26.027 56.429C26.027 58.826 24.086 60.77 21.6931 60.77C19.2997 60.77 17.3604 58.826 17.3604 56.429C17.3604 54.0315 19.2997 52.0883 21.6931 52.0883C24.086 52.0883 26.027 54.0315 26.027 56.429ZM21.6931 52.8118C19.6991 52.8118 18.0827 54.4315 18.0827 56.429C18.0827 58.4264 19.6991 60.0461 21.6931 60.0461C23.6879 60.0461 25.3048 58.4264 25.3048 56.429C25.3048 54.4315 23.6879 52.8118 21.6931 52.8118Z" fill="#FCB030"/>
<path d="M35.4161 56.429C35.4161 58.826 33.4754 60.77 31.0825 60.77C28.6892 60.77 26.749 58.826 26.749 56.429C26.749 54.0315 28.6892 52.0883 31.0825 52.0883C33.4754 52.0883 35.4161 54.0315 35.4161 56.429ZM31.0825 52.8118C29.0877 52.8118 27.4717 54.4315 27.4717 56.429C27.4717 58.4264 29.0877 60.0461 31.0825 60.0461C33.0769 60.0461 34.6938 58.4264 34.6938 56.429C34.6938 54.4315 33.0769 52.8118 31.0825 52.8118Z" fill="#00A652"/>
<path d="M16.9998 48.1104C14.6061 48.1104 12.6663 50.0526 12.6663 52.4501C12.6663 54.8472 14.6061 56.7908 16.9998 56.7908C17.1262 56.7908 17.2505 56.7835 17.3747 56.7731C17.3661 56.6599 17.3601 56.5449 17.3601 56.429C17.3601 56.2994 17.3674 56.1736 17.3777 56.0479C17.2531 56.0599 17.1275 56.0664 16.9998 56.0664C15.005 56.0664 13.3881 54.448 13.3881 52.4501C13.3881 50.4519 15.005 48.8321 16.9998 48.8321C18.9938 48.8321 20.6107 50.4519 20.6107 52.4501C20.6107 54.0543 19.5677 55.4135 18.1232 55.8872C18.097 56.0642 18.0824 56.2456 18.0824 56.429C18.0824 56.5044 18.0854 56.5772 18.0897 56.6517C19.9551 56.1663 21.3321 54.4686 21.3321 52.4501C21.3321 50.0526 19.3927 48.1104 16.9998 48.1104Z" fill="#0082C7"/>
<path d="M35.7764 48.1095C33.4996 48.1095 31.6342 49.8683 31.4584 52.1043C31.7026 52.1254 31.9416 52.1663 32.1729 52.2275C32.2877 50.3334 33.8573 48.8321 35.7764 48.8321C37.7717 48.8321 39.3881 50.4519 39.3881 52.4493C39.3881 54.448 37.7717 56.0664 35.7764 56.0664C33.9669 56.0664 32.4665 54.7318 32.2065 52.9915C31.9683 52.9135 31.7181 52.8601 31.461 52.8326C31.654 55.0496 33.5125 56.7908 35.7764 56.7908C38.1693 56.7908 40.1095 54.8472 40.1095 52.4493C40.1095 50.0526 38.1693 48.1095 35.7764 48.1095Z" fill="#E8384F"/>
<path d="M26.3882 48.1096C24.1105 48.1096 22.2447 49.8705 22.0693 52.1044C22.3143 52.1263 22.5525 52.1681 22.7846 52.2275C22.8994 50.3335 24.4682 48.8322 26.3882 48.8322C28.3825 48.8322 29.999 50.4519 29.999 52.4493C29.999 54.0544 28.956 55.4136 27.5124 55.8873C27.4866 56.0652 27.4716 56.2456 27.4716 56.4291C27.4716 56.504 27.4737 56.5772 27.4789 56.6517C29.3434 56.1664 30.7213 54.4687 30.7213 52.4493C30.7213 50.0527 28.7815 48.1096 26.3882 48.1096Z" fill="black"/>
<path d="M26.7492 56.429C26.7492 56.2994 26.7557 56.1736 26.7668 56.0479C26.6417 56.0599 26.5158 56.0664 26.3881 56.0664C24.5773 56.0664 23.0782 54.7318 22.8164 52.9919C22.5782 52.9135 22.3297 52.8606 22.0726 52.8334C22.2657 55.0496 24.1237 56.7908 26.3881 56.7908C26.5145 56.7908 26.6396 56.7835 26.763 56.7731C26.7535 56.6599 26.7492 56.5449 26.7492 56.429Z" fill="black"/>
<path d="M28.2475 29.0103C27.7944 28.8415 27.0322 28.826 26.3877 29.3514C25.7433 28.826 24.9811 28.8415 24.5279 29.0103C24.1492 29.1515 23.8521 29.2459 23.2941 29.2411C23.847 30.3957 25.0249 31.192 26.3877 31.192C27.7506 31.192 28.9285 30.3957 29.4814 29.2411C28.9234 29.2459 28.6263 29.1515 28.2475 29.0103Z" fill="#D6C278"/>
<path d="M26.3882 3.47926e-05C17.0612 3.47926e-05 9.49951 7.57451 9.49951 16.9181C9.49951 24.9272 15.0561 31.6369 22.5181 33.3896C16.5883 30.2118 14.1705 22.925 17.0299 16.8212C17.492 19.2317 19.0608 21.3794 21.4046 22.4939C18.3475 15.3312 20.5986 6.91086 26.9075 2.25412C25.6664 6.51121 27.5726 10.4065 31.6615 13.3475C36.3385 16.711 36.5363 23.5744 32.4087 27.2846C34.0484 26.9022 35.5737 25.9978 36.713 24.6132C36.0101 28.2411 33.7393 31.5236 30.2574 33.3896C37.7198 31.6369 43.276 24.9272 43.276 16.9181C43.276 7.57451 35.7151 3.47926e-05 26.3882 3.47926e-05Z" fill="#D6C278"/>
<path d="M38.7045 32.284H39.0235V33.3904H39.1769V32.284H39.4959V32.1397H38.7045V32.284ZM40.9078 32.1397C40.6696 32.1397 40.4796 32.2435 40.3871 32.4149C40.2951 32.2435 40.1051 32.1397 39.8665 32.1397H39.784V33.3904H39.9379V32.2939H39.9435C40.1666 32.2939 40.3106 32.4515 40.3106 32.694V33.0054H40.4641V32.694C40.4641 32.4515 40.6081 32.2939 40.8308 32.2939H40.8364V33.3904H40.9903V32.1397H40.9078Z" fill="#D6C278"/>
</svg>
